<svg width="20" height="22" viewBox="0 0 20 22" fill="none" xmlns="http://www.w3.org/2000/svg">
<path d="M9.99999 21.8533C10.4199 21.8437 10.8229 21.6858 11.1377 21.4076C11.4525 21.1294 11.6587 20.7489 11.72 20.3333H8.21332C8.2763 20.7602 8.4922 21.1497 8.82085 21.4293C9.14951 21.7089 9.56853 21.8596 9.99999 21.8533Z" fill="#909090"/>
<path d="M19.6733 17.5533C19.0305 16.9802 18.4676 16.3232 18 15.6C17.4895 14.6017 17.1835 13.5115 17.1 12.3933V9.1C17.0973 8.69997 17.0616 8.30084 16.9933 7.90667C16.4686 7.80178 15.9643 7.61267 15.5 7.34667C15.677 7.91656 15.7669 8.50992 15.7667 9.10667V12.4C15.8484 13.764 16.2236 15.0943 16.8667 16.3C17.3269 17.0293 17.8731 17.7008 18.4933 18.3H1.41999C2.04026 17.7008 2.58639 17.0293 3.04666 16.3C3.68973 15.0943 4.06495 13.764 4.14666 12.4V9.1C4.14315 8.32846 4.29186 7.5638 4.58429 6.84981C4.87671 6.13583 5.3071 5.48653 5.8508 4.93911C6.39451 4.39169 7.04086 3.95689 7.75284 3.65961C8.46482 3.36233 9.22844 3.20841 9.99999 3.20667C11.1292 3.20757 12.233 3.5415 13.1733 4.16667C13.0697 3.78599 13.0115 3.39437 13 3V2.58C12.3039 2.23757 11.5561 2.01233 10.7867 1.91333V1.07333C10.7867 0.837292 10.6929 0.610917 10.526 0.444009C10.3591 0.277102 10.1327 0.183334 9.89666 0.183334C9.66061 0.183334 9.43424 0.277102 9.26733 0.444009C9.10043 0.610917 9.00666 0.837292 9.00666 1.07333V1.94667C7.2838 2.1897 5.70704 3.04783 4.56747 4.36262C3.4279 5.67742 2.80248 7.36009 2.80666 9.1V12.3933C2.72316 13.5115 2.41718 14.6017 1.90666 15.6C1.44725 16.3216 0.893455 16.9785 0.259992 17.5533C0.18888 17.6158 0.131886 17.6927 0.0928035 17.7789C0.0537209 17.8651 0.0334451 17.9587 0.0333252 18.0533V18.96C0.0333252 19.1368 0.103563 19.3064 0.228587 19.4314C0.353612 19.5564 0.523181 19.6267 0.699992 19.6267H19.2333C19.4101 19.6267 19.5797 19.5564 19.7047 19.4314C19.8298 19.3064 19.9 19.1368 19.9 18.96V18.0533C19.8999 17.9587 19.8796 17.8651 19.8405 17.7789C19.8014 17.6927 19.7444 17.6158 19.6733 17.5533Z" fill="#909090"/>
</svg>
