<svg width="20" height="20" viewBox="0 0 20 20" fill="none" xmlns="http://www.w3.org/2000/svg">
<path fill-rule="evenodd" clip-rule="evenodd" d="M10.058 0.000234022C6.54635 -0.013878 3.28554 1.807 1.46059 4.80009C-0.364589 7.79358 -0.487117 11.5226 1.13765 14.6291L1.32147 14.9875C1.39175 15.1192 1.40531 15.2613 1.36458 15.3926C1.10204 16.0865 0.871363 16.8357 0.687298 17.597L0.667756 17.7609C0.667756 18.5263 1.07616 19.0523 1.88671 19.0343L2.02167 19.018C2.75798 18.8554 3.4831 18.646 4.19261 18.3909C4.28665 18.3671 4.4407 18.3763 4.57971 18.4332L5.26224 18.8194C5.26378 18.8242 5.26493 18.8278 5.27208 18.8319L5.31788 18.848C8.99294 20.7804 13.4812 20.2473 16.5997 17.5079C19.7187 14.7681 20.8199 10.3901 19.3675 6.50386C17.9153 2.61802 14.2115 0.0307591 10.058 0.000234022ZM9.76749 1.39902L10.0484 1.39462C13.6231 1.42181 16.8109 3.64861 18.0605 6.99234C19.31 10.3357 18.3626 14.1021 15.6788 16.4596L15.4587 16.6466C12.8626 18.778 9.25821 19.2076 6.23269 17.7468L5.94496 17.6026L5.95729 17.6042L5.93909 17.5993L5.51677 17.3569C5.36471 17.271 5.24408 17.2059 5.14685 17.159C4.6837 16.9681 4.21354 16.9399 3.77133 17.0617L3.35272 17.2055C3.07605 17.2969 2.80372 17.3794 2.53273 17.4541L2.13767 17.5573L2.04356 17.9249C2.21419 17.2192 2.42804 16.5246 2.68389 15.8451C2.84853 15.3183 2.79818 14.7905 2.55755 14.3402L2.37662 13.9873C0.976269 11.3099 1.08168 8.1019 2.65196 5.52648C4.17338 3.0312 6.85494 1.48235 9.76749 1.39902ZM4.4746 10.0002C4.4746 9.36999 4.98586 8.85957 5.61596 8.85957C6.24606 8.85957 6.75732 9.36999 6.75732 10.0002C6.75732 10.6304 6.24606 11.1408 5.61596 11.1408C4.98586 11.1408 4.4746 10.6304 4.4746 10.0002ZM8.91148 10.0002C8.91148 9.36999 9.42274 8.85957 10.0528 8.85957C10.6829 8.85957 11.1942 9.36999 11.1942 10.0002C11.1942 10.6304 10.6829 11.1408 10.0528 11.1408C9.42274 11.1408 8.91148 10.6304 8.91148 10.0002ZM14.4897 8.85957C13.8596 8.85957 13.3484 9.36999 13.3484 10.0002C13.3484 10.6304 13.8596 11.1408 14.4897 11.1408C15.1198 11.1408 15.6311 10.6304 15.6311 10.0002C15.6311 9.36999 15.1198 8.85957 14.4897 8.85957Z" fill="#BDBDBD"/>
</svg>
