<svg width="24" height="24" viewBox="0 0 24 24" fill="none" xmlns="http://www.w3.org/2000/svg">
<g clip-path="url(#clip0_1_1458)">
<path d="M1.2 19.2V12C1.2 9.13567 2.33785 6.38865 4.36324 4.36326C6.38864 2.33787 9.13566 1.20001 12 1.20001C14.8643 1.20001 17.6114 2.33787 19.6367 4.36326C21.6621 6.38865 22.8 9.13567 22.8 12V19.2" stroke="#8AC53E" stroke-width="2" stroke-linecap="round" stroke-linejoin="round"/>
<path d="M22.8 20.4C22.8 21.0365 22.5471 21.647 22.0971 22.0971C21.647 22.5472 21.0365 22.8 20.4 22.8H19.2C18.5635 22.8 17.953 22.5472 17.5029 22.0971C17.0529 21.647 16.8 21.0365 16.8 20.4V16.8C16.8 16.1635 17.0529 15.5531 17.5029 15.103C17.953 14.6529 18.5635 14.4 19.2 14.4H22.8V20.4ZM1.2 20.4C1.2 21.0365 1.45285 21.647 1.90294 22.0971C2.35303 22.5472 2.96348 22.8 3.6 22.8H4.8C5.43652 22.8 6.04697 22.5472 6.49705 22.0971C6.94714 21.647 7.2 21.0365 7.2 20.4V16.8C7.2 16.1635 6.94714 15.5531 6.49705 15.103C6.04697 14.6529 5.43652 14.4 4.8 14.4H1.2V20.4Z" stroke="#8AC53E" stroke-width="2" stroke-linecap="round" stroke-linejoin="round"/>
</g>
<defs>
<clipPath id="clip0_1_1458">
<rect width="24" height="24" fill="white"/>
</clipPath>
</defs>
</svg>
